<svg xmlns="http://www.w3.org/2000/svg" width="1620" height="1180" viewBox="0 0 1620 1180">

<defs>
  <marker id="arrow" viewBox="0 0 10 10" refX="9" refY="5" markerWidth="7" markerHeight="7" orient="auto-start-reverse">
    <path d="M0,0 L10,5 L0,10 z" fill="#374151"/>
  </marker>
  <filter id="softShadow" x="-30%" y="-30%" width="160%" height="160%">
    <feDropShadow dx="0" dy="2" stdDeviation="3" flood-color="#000000" flood-opacity="0.15"/>
  </filter>
</defs>

<rect x="0" y="0" width="1620" height="1180" fill="#FFFFFF"/>
<rect x="0" y="0" width="10" height="1180" fill="#3ECF8E"/>
<text x="48" y="46" text-anchor="start" style="font-family:Helvetica, Arial, sans-serif;font-size:24px;font-weight:bold;fill:#1F2937;">Credit Risk Lakehouse Brasil</text>
<text x="48" y="70" text-anchor="start" style="font-family:Helvetica, Arial, sans-serif;font-size:14px;font-weight:normal;fill:#6B7280;">Arquitetura Medalhão  •  Databricks + Delta Lake + Power BI</text>
<line x1="48" y1="86" x2="1572" y2="86" stroke="#D1D5DB" stroke-width="1.5"/>
<text x="48" y="135" text-anchor="start" style="font-family:Helvetica, Arial, sans-serif;font-size:14.5px;font-weight:bold;fill:#1E9E68;letter-spacing:0.6px;">1. PROCESSAMENTO — CAMADAS MEDALHÃO</text>
<rect x="330" y="150" width="1080" height="375" rx="22" fill="#FAFBFC" stroke="#9CA3AF" stroke-width="1.5" stroke-dasharray="6,5"/>
<rect x="354" y="134" width="150" height="32" rx="16" fill="#1F2937"/>
<text x="429" y="155" text-anchor="middle" style="font-family:Helvetica, Arial, sans-serif;font-size:14px;font-weight:bold;fill:#FFFFFF;">Databricks</text>
<g filter="url(#softShadow)"><path d="M 72.16 168 L 111.84 168 L 106.08 209.92000000000002 Q 92.0 218.88 77.92 209.92000000000002 Z" fill="#EAF5EE" stroke="#3B7A57" stroke-width="1.8"/><ellipse cx="92.0" cy="168" rx="19.84" ry="6" fill="#EAF5EE" stroke="#3B7A57" stroke-width="1.8"/></g><text x="92.0" y="246" text-anchor="middle" style="font-family:Helvetica, Arial, sans-serif;font-size:14px;font-weight:normal;fill:#6B7280;">Amazon S3</text><text x="92.0" y="262" text-anchor="middle" style="font-family:Helvetica, Arial, sans-serif;font-size:13.5px;font-weight:600;fill:#3B7A57;">File.csv</text>
<g filter="url(#softShadow)"><path d="M 72.16 353 L 111.84 353 L 106.08 394.92 Q 92.0 403.88 77.92 394.92 Z" fill="#EAF5EE" stroke="#3B7A57" stroke-width="1.8"/><ellipse cx="92.0" cy="353" rx="19.84" ry="6" fill="#EAF5EE" stroke="#3B7A57" stroke-width="1.8"/></g><text x="92.0" y="431" text-anchor="middle" style="font-family:Helvetica, Arial, sans-serif;font-size:14px;font-weight:normal;fill:#6B7280;">Amazon S3</text><text x="92.0" y="447" text-anchor="middle" style="font-family:Helvetica, Arial, sans-serif;font-size:13.5px;font-weight:600;fill:#3B7A57;">File.csv</text>
<g filter="url(#softShadow)"><path d="M 495.0 236.88 A 65.0 12.88 0 0 0 625.0 236.88 L 625.0 303.12 A 65.0 12.88 0 0 1 495.0 303.12 Z" fill="#DDA15E" stroke="#B8823D" stroke-width="1.5"/><ellipse cx="560" cy="236.88" rx="65.0" ry="12.88" fill="#DDA15E" stroke="#B8823D" stroke-width="1.5"/></g><text x="560" y="342.0" text-anchor="middle" style="font-family:Helvetica, Arial, sans-serif;font-size:16px;font-weight:bold;fill:#1F2937;">Bronze</text>
<g filter="url(#softShadow)"><path d="M 855.0 236.88 A 65.0 12.88 0 0 0 985.0 236.88 L 985.0 303.12 A 65.0 12.88 0 0 1 855.0 303.12 Z" fill="#C9CDD3" stroke="#9CA3AF" stroke-width="1.5"/><ellipse cx="920" cy="236.88" rx="65.0" ry="12.88" fill="#C9CDD3" stroke="#9CA3AF" stroke-width="1.5"/></g><text x="920" y="342.0" text-anchor="middle" style="font-family:Helvetica, Arial, sans-serif;font-size:16px;font-weight:bold;fill:#1F2937;">Silver</text>
<g filter="url(#softShadow)"><path d="M 1205.0 236.88 A 65.0 12.88 0 0 0 1335.0 236.88 L 1335.0 303.12 A 65.0 12.88 0 0 1 1205.0 303.12 Z" fill="#E8C468" stroke="#C79A2E" stroke-width="1.5"/><ellipse cx="1270" cy="236.88" rx="65.0" ry="12.88" fill="#E8C468" stroke="#C79A2E" stroke-width="1.5"/></g><text x="1270" y="342.0" text-anchor="middle" style="font-family:Helvetica, Arial, sans-serif;font-size:16px;font-weight:bold;fill:#1F2937;">Gold</text>
<line x1="124" y1="190" x2="489.0" y2="256" stroke="#3B7A57" stroke-width="2" marker-end="url(#arrow)"/>
<line x1="124" y1="375" x2="489.0" y2="284" stroke="#3B7A57" stroke-width="2" marker-end="url(#arrow)"/>
<rect x="248.02246153846153" y="199.0" width="116.95507692307693" height="20" rx="10" fill="#FFFFFF" stroke="#D1D5DB" stroke-width="1"/><text x="306.5" y="214.0" text-anchor="middle" style="font-family:Helvetica, Arial, sans-serif;font-size:14px;font-weight:600;fill:#3B7A57;">Extract &amp; Load</text>
<line x1="629.0" y1="270" x2="851.0" y2="270" stroke="#1F2937" stroke-width="2" marker-end="url(#arrow)"/>
<rect x="706.7612307692308" y="240" width="66.47753846153847" height="20" rx="10" fill="#FFFFFF" stroke="#D1D5DB" stroke-width="1"/><text x="740.0" y="255" text-anchor="middle" style="font-family:Helvetica, Arial, sans-serif;font-size:14px;font-weight:600;fill:#1F2937;">Transform</text>
<line x1="989.0" y1="270" x2="1201.0" y2="270" stroke="#1F2937" stroke-width="2" marker-end="url(#arrow)"/>
<rect x="1061.7612307692307" y="240" width="66.47753846153847" height="20" rx="10" fill="#FFFFFF" stroke="#D1D5DB" stroke-width="1"/><text x="1095.0" y="255" text-anchor="middle" style="font-family:Helvetica, Arial, sans-serif;font-size:14px;font-weight:600;fill:#1F2937;">Transform</text>
<text x="560" y="382.0" text-anchor="middle" style="font-family:Helvetica, Arial, sans-serif;font-size:17px;font-weight:bold;fill:#B8823D;">Raw</text>
<text x="560" y="406.0" text-anchor="middle" style="font-family:Helvetica, Arial, sans-serif;font-size:14px;font-weight:normal;fill:#6B7280;">1:1 Copy</text>
<text x="560" y="425.0" text-anchor="middle" style="font-family:Helvetica, Arial, sans-serif;font-size:14px;font-weight:normal;fill:#6B7280;">Sem transformações</text>
<text x="920" y="382.0" text-anchor="middle" style="font-family:Helvetica, Arial, sans-serif;font-size:17px;font-weight:bold;fill:#9CA3AF;">Clean</text>
<text x="920" y="406.0" text-anchor="middle" style="font-family:Helvetica, Arial, sans-serif;font-size:14px;font-weight:normal;fill:#6B7280;">Dados limpos</text>
<text x="920" y="425.0" text-anchor="middle" style="font-family:Helvetica, Arial, sans-serif;font-size:14px;font-weight:normal;fill:#6B7280;">Padrões e tipos</text>
<text x="920" y="444.0" text-anchor="middle" style="font-family:Helvetica, Arial, sans-serif;font-size:14px;font-weight:normal;fill:#6B7280;">Sem modelagem</text>
<text x="1270" y="382.0" text-anchor="middle" style="font-family:Helvetica, Arial, sans-serif;font-size:17px;font-weight:bold;fill:#C79A2E;">Business</text>
<text x="1270" y="406.0" text-anchor="middle" style="font-family:Helvetica, Arial, sans-serif;font-size:14px;font-weight:normal;fill:#6B7280;">Regras de negócio</text>
<text x="1270" y="425.0" text-anchor="middle" style="font-family:Helvetica, Arial, sans-serif;font-size:14px;font-weight:normal;fill:#6B7280;">Modelo estrela</text>
<text x="1270" y="444.0" text-anchor="middle" style="font-family:Helvetica, Arial, sans-serif;font-size:14px;font-weight:normal;fill:#6B7280;">Agregações / DataMarts</text>
<line x1="0" y1="545" x2="1620" y2="545" stroke="#D1D5DB" stroke-width="1.5"/><line x1="0" y1="550" x2="1620" y2="550" stroke="#D1D5DB" stroke-width="1.5"/>
<text x="48" y="595" text-anchor="start" style="font-family:Helvetica, Arial, sans-serif;font-size:14.5px;font-weight:bold;fill:#1E9E68;letter-spacing:0.6px;">2. ARMAZENAMENTO — UNITY CATALOG (DELTA LAKE)</text>
<g filter="url(#softShadow)"><path d="M 72.16 648 L 111.84 648 L 106.08 689.92 Q 92.0 698.88 77.92 689.92 Z" fill="#EAF5EE" stroke="#3B7A57" stroke-width="1.8"/><ellipse cx="92.0" cy="648" rx="19.84" ry="6" fill="#EAF5EE" stroke="#3B7A57" stroke-width="1.8"/></g><text x="92.0" y="726" text-anchor="middle" style="font-family:Helvetica, Arial, sans-serif;font-size:14px;font-weight:normal;fill:#6B7280;">Amazon S3</text><text x="92.0" y="742" text-anchor="middle" style="font-family:Helvetica, Arial, sans-serif;font-size:13.5px;font-weight:600;fill:#3B7A57;">File.csv</text>
<text x="92" y="626" text-anchor="middle" style="font-family:Helvetica, Arial, sans-serif;font-size:14.5px;font-weight:600;fill:#6B7280;">Data Ingestion</text>
<g filter="url(#softShadow)">
<path d="M 250 646 L 318 646 L 308 702 Q 284 712 260 702 Z" fill="#EAF5EE" stroke="#3B7A57" stroke-width="1.8"/>
<ellipse cx="284" cy="646" rx="34" ry="7" fill="#EAF5EE" stroke="#3B7A57" stroke-width="1.8"/>
<rect x="264" y="662" width="40" height="30" rx="3" fill="#FFFFFF" stroke="#3B7A57" stroke-width="1.3"/>
<line x1="264" y1="672" x2="304" y2="672" stroke="#3B7A57" stroke-width="1"/>
<line x1="264" y1="682" x2="304" y2="682" stroke="#3B7A57" stroke-width="1"/>
</g>
<text x="284" y="732" text-anchor="middle" style="font-family:Helvetica, Arial, sans-serif;font-size:14px;font-weight:600;fill:#6B7280;">Unity Catalog</text>
<line x1="130" y1="675" x2="244" y2="671" stroke="#3B7A57" stroke-width="2" marker-end="url(#arrow)"/>
<g filter="url(#softShadow)"><path d="M 505.0 811.92 A 55.0 10.920000000000002 0 0 0 615.0 811.92 L 615.0 868.08 A 55.0 10.920000000000002 0 0 1 505.0 868.08 Z" fill="#DDA15E" stroke="#B8823D" stroke-width="1.5"/><ellipse cx="560" cy="811.92" rx="55.0" ry="10.920000000000002" fill="#DDA15E" stroke="#B8823D" stroke-width="1.5"/></g><g filter="url(#softShadow)"><path d="M 593.0 851.96 L 606.0 874.96 L 580.0 874.96 Z" fill="#00A8E1" stroke="#0678A0" stroke-width="1"/></g><text x="560" y="905.0" text-anchor="middle" style="font-family:Helvetica, Arial, sans-serif;font-size:15px;font-weight:bold;fill:#1F2937;">Bronze</text><text x="560" y="922.0" text-anchor="middle" style="font-family:Helvetica, Arial, sans-serif;font-size:13.5px;font-weight:600;fill:#0678A0;">Delta Table</text>
<g filter="url(#softShadow)"><path d="M 865.0 811.92 A 55.0 10.920000000000002 0 0 0 975.0 811.92 L 975.0 868.08 A 55.0 10.920000000000002 0 0 1 865.0 868.08 Z" fill="#C9CDD3" stroke="#9CA3AF" stroke-width="1.5"/><ellipse cx="920" cy="811.92" rx="55.0" ry="10.920000000000002" fill="#C9CDD3" stroke="#9CA3AF" stroke-width="1.5"/></g><g filter="url(#softShadow)"><path d="M 953.0 851.96 L 966.0 874.96 L 940.0 874.96 Z" fill="#00A8E1" stroke="#0678A0" stroke-width="1"/></g><text x="920" y="905.0" text-anchor="middle" style="font-family:Helvetica, Arial, sans-serif;font-size:15px;font-weight:bold;fill:#1F2937;">Silver</text><text x="920" y="922.0" text-anchor="middle" style="font-family:Helvetica, Arial, sans-serif;font-size:13.5px;font-weight:600;fill:#0678A0;">Delta Table</text>
<g filter="url(#softShadow)"><path d="M 1215.0 811.92 A 55.0 10.920000000000002 0 0 0 1325.0 811.92 L 1325.0 868.08 A 55.0 10.920000000000002 0 0 1 1215.0 868.08 Z" fill="#E8C468" stroke="#C79A2E" stroke-width="1.5"/><ellipse cx="1270" cy="811.92" rx="55.0" ry="10.920000000000002" fill="#E8C468" stroke="#C79A2E" stroke-width="1.5"/></g><g filter="url(#softShadow)"><path d="M 1303.0 851.96 L 1316.0 874.96 L 1290.0 874.96 Z" fill="#00A8E1" stroke="#0678A0" stroke-width="1"/></g><text x="1270" y="905.0" text-anchor="middle" style="font-family:Helvetica, Arial, sans-serif;font-size:15px;font-weight:bold;fill:#1F2937;">Gold</text><text x="1270" y="922.0" text-anchor="middle" style="font-family:Helvetica, Arial, sans-serif;font-size:13.5px;font-weight:600;fill:#0678A0;">Delta Table</text>
<line x1="284" y1="746" x2="560" y2="785.0" stroke="#3B7A57" stroke-width="2" marker-end="url(#arrow)"/>
<g filter="url(#softShadow)"><rect x="713.0" y="718.0" width="54" height="54" rx="10" fill="#EFF6FF" stroke="#3B82F6" stroke-width="1.8"/></g><text x="740.0" y="752" text-anchor="middle" style="font-family:Helvetica, Arial, sans-serif;font-size:18px;font-weight:bold;fill:#3B82F6;">&lt;/&gt;</text><text x="740.0" y="792.0" text-anchor="middle" style="font-family:Helvetica, Arial, sans-serif;font-size:14px;font-weight:600;fill:#6B7280;">Notebook</text>
<g filter="url(#softShadow)"><rect x="1068.0" y="718.0" width="54" height="54" rx="10" fill="#EFF6FF" stroke="#3B82F6" stroke-width="1.8"/></g><text x="1095.0" y="752" text-anchor="middle" style="font-family:Helvetica, Arial, sans-serif;font-size:18px;font-weight:bold;fill:#3B82F6;">&lt;/&gt;</text><text x="1095.0" y="792.0" text-anchor="middle" style="font-family:Helvetica, Arial, sans-serif;font-size:14px;font-weight:600;fill:#6B7280;">Notebook</text>
<line x1="578" y1="795.0" x2="724.0" y2="767" stroke="#1F2937" stroke-width="2" marker-end="url(#arrow)"/>
<line x1="756.0" y1="767" x2="902" y2="795.0" stroke="#1F2937" stroke-width="2" marker-end="url(#arrow)"/>
<line x1="938" y1="795.0" x2="1079.0" y2="767" stroke="#1F2937" stroke-width="2" marker-end="url(#arrow)"/>
<line x1="1111.0" y1="767" x2="1252" y2="795.0" stroke="#1F2937" stroke-width="2" marker-end="url(#arrow)"/>
<g filter="url(#softShadow)"><rect x="1476" y="826" width="16" height="34" rx="3" fill="#C79A2E"/><rect x="1498" y="806" width="16" height="54" rx="3" fill="#D9A521"/><rect x="1520" y="786" width="16" height="74" rx="3" fill="#B8860B"/></g><text x="1500" y="884" text-anchor="middle" style="font-family:Helvetica, Arial, sans-serif;font-size:14px;font-weight:bold;fill:#1F2937;">Power BI</text>
<line x1="1331.0" y1="830" x2="1460" y2="828" stroke="#C79A2E" stroke-width="2" marker-end="url(#arrow)"/>
<line x1="0" y1="975" x2="1620" y2="975" stroke="#D1D5DB" stroke-width="1.5"/><line x1="0" y1="980" x2="1620" y2="980" stroke="#D1D5DB" stroke-width="1.5"/>
<rect x="48" y="1001" width="1524" height="96" rx="18" fill="#1F2937" filter="url(#softShadow)"/>
<circle cx="108" cy="1049.0" r="26" fill="none" stroke="#3ECF8E" stroke-width="3.5" stroke-dasharray="10,7"/>
<path d="M 116 1029.0 l 10 4 l -4 10" fill="none" stroke="#3ECF8E" stroke-width="3.5" stroke-linecap="round" stroke-linejoin="round"/>
<text x="163" y="1045.0" text-anchor="start" style="font-family:Helvetica, Arial, sans-serif;font-size:20px;font-weight:bold;fill:#FFFFFF;">Pipeline de Dados</text>
<text x="163" y="1069.0" text-anchor="start" style="font-family:Helvetica, Arial, sans-serif;font-size:14.5px;font-weight:normal;fill:#CBD5E1;">Orquestração agendada — Databricks Workflows</text>
<rect x="1394" y="1025" width="150" height="48" rx="20" fill="#111827" stroke="#3ECF8E" stroke-width="1.5"/>
<text x="1469.0" y="1055.0" text-anchor="middle" style="font-family:Helvetica, Arial, sans-serif;font-size:16px;font-weight:bold;fill:#3ECF8E;">⏰  00:01 AM</text>
</svg>